<svg xmlns="http://www.w3.org/2000/svg" version="1.1" xmlns:xlink="http://www.w3.org/1999/xlink" xmlns:svgjs="http://svgjs.dev/svgjs" width="1500" height="643" viewBox="0 0 1500 643"><g transform="matrix(1,0,0,1,-0.908821112591454,-0.2126594451042365)"><svg viewBox="0 0 396 170" data-background-color="#ffffff" preserveAspectRatio="xMidYMid meet" height="643" width="1500" xmlns="http://www.w3.org/2000/svg" xmlns:xlink="http://www.w3.org/1999/xlink"><g id="tight-bounds" transform="matrix(1,0,0,1,0.24005991701341145,0.05622411456877785)"><svg viewBox="0 0 395.52 169.88711761828296" height="169.88711761828296" width="395.52"><g><svg viewBox="0 0 395.52 169.88711761828296" height="169.88711761828296" width="395.52"><g transform="matrix(1,0,0,1,0,111.43039343446733)"><svg viewBox="0 0 395.52 58.45672418381561" height="58.45672418381561" width="395.52"><g id="textblocktransform"><svg viewBox="0 0 395.52 58.45672418381561" height="58.45672418381561" width="395.52" id="textblock"><g><svg viewBox="0 0 395.52 58.45672418381561" height="58.45672418381561" width="395.52"><g transform="matrix(1,0,0,1,0,0)"><svg width="395.52" viewBox="2.945919552576804 -34.88409 324.32512044742316 47.934327059628934" height="58.45672418381561" data-palette-color="black"><path d="M25.763-22.072l-3.491 4.041c-0.841-0.732-1.701-1.252-2.581-1.562-0.879-0.303-1.799-0.426-2.76-0.369v0l-0.609-4.711c3.578-0.301 6.725 0.566 9.441 2.601zM20.957 11.189l-0.609-4.711c0.939-0.222 1.806-0.593 2.599-1.113 0.786-0.525 1.478-1.23 2.076-2.113v0l4.397 2.971c-1.051 1.332-2.283 2.413-3.695 3.24-1.412 0.828-3.002 1.403-4.768 1.726zM3.204-4.777v0c-0.365-2.823-0.343-5.357 0.066-7.601 0.402-2.25 1.107-4.2 2.118-5.85 1.018-1.644 2.29-2.985 3.816-4.023 1.533-1.038 3.254-1.762 5.164-2.169v0l0.615 4.76c-1.024 0.294-1.96 0.778-2.807 1.452-0.854 0.675-1.56 1.583-2.118 2.724-0.566 1.135-0.943 2.532-1.132 4.189-0.19 1.651-0.16 3.573 0.09 5.767v0c0.321 2.224 0.782 4.104 1.384 5.639 0.602 1.536 1.323 2.797 2.163 3.784 0.834 0.988 1.757 1.709 2.77 2.162 1.012 0.447 2.033 0.672 3.062 0.673v0l0.602 4.662c-1.947 0.124-3.794-0.121-5.54-0.736-1.74-0.615-3.311-1.589-4.713-2.92-1.396-1.339-2.576-3.052-3.538-5.139-0.969-2.086-1.636-4.544-2.002-7.374zM42.753-14.831l1.573 14.857c0.114 1.081 0.346 1.907 0.696 2.48 0.356 0.579 0.813 1 1.37 1.263 0.557 0.263 1.169 0.399 1.834 0.409 0.658 0.011 1.352-0.023 2.081-0.1v0l0.374 3.53c-0.404 0.11-0.81 0.2-1.219 0.27v0c-0.348 0.07-0.769 0.142-1.264 0.215-0.489 0.065-0.972 0.123-1.45 0.173v0c-0.477 0.051-0.966 0.086-1.467 0.105-0.494 0.019-0.92 0.017-1.278-0.005v0c-1.101-0.078-1.993-0.459-2.675-1.145-0.689-0.685-1.231-1.465-1.626-2.341-0.4-0.869-0.686-1.731-0.857-2.584-0.171-0.853-0.282-1.519-0.332-1.996v0l-1.538-14.519-3.53 0.374-0.415-3.918 3.53-0.374-0.809-7.638 5.777-0.612 0.809 7.638 4.296-0.455 0.416 3.918zM54.854-19.959l5.169-0.458 0.864 2.724 1.3 14.642 0.008 0.09 0.841 9.473-5.787 0.513zM63.142-14.57l-0.433-4.881c0.757-0.516 1.683-0.943 2.778-1.281 1.094-0.338 2.598-0.592 4.51-0.761v0l0.535 6.026c-0.912-0.173-2.007-0.22-3.285-0.14v0c-0.704 0.062-1.409 0.182-2.117 0.358-0.707 0.177-1.37 0.403-1.988 0.679zM81.428-32.355l2.094 28.974c0.078 1.084 0.286 1.928 0.624 2.532 0.331 0.604 0.763 1.038 1.297 1.299 0.527 0.269 1.124 0.427 1.789 0.473 0.659 0.053 1.374 0.051 2.145-0.005v0l0.256 3.541c-0.414 0.097-0.843 0.175-1.287 0.233v0c-0.35 0.059-0.764 0.115-1.241 0.17-0.478 0.048-0.956 0.089-1.434 0.124v0c-0.479 0.035-0.959 0.053-1.44 0.054-0.481 0.001-0.917-0.014-1.307-0.046v0c-1.1-0.148-1.979-0.566-2.637-1.253-0.665-0.694-1.19-1.485-1.575-2.373-0.385-0.881-0.648-1.751-0.79-2.61-0.142-0.859-0.231-1.527-0.266-2.006v0l-0.041-0.568-2.031-28.117zM110.693-31.975l14.024 34.698-5.943 0.295-10.47-26.024-7.948 26.936-5.992 0.297 10.626-35.92zM105.793-7.593l6.432-0.319 1.581 3.817-9.159 0.453zM136.325-34.884l0.78 29.039c0.029 1.086 0.199 1.939 0.508 2.558 0.303 0.619 0.716 1.071 1.237 1.357 0.515 0.293 1.103 0.477 1.766 0.553 0.656 0.082 1.37 0.113 2.143 0.092v0l0.095 3.549c-0.418 0.078-0.85 0.136-1.295 0.175v0c-0.352 0.043-0.768 0.081-1.248 0.113-0.479 0.026-0.959 0.046-1.439 0.059v0c-0.48 0.013-0.96 0.009-1.441-0.011-0.481-0.02-0.915-0.055-1.303-0.105v0c-1.092-0.197-1.952-0.655-2.578-1.372-0.633-0.723-1.122-1.537-1.466-2.441-0.344-0.898-0.568-1.779-0.671-2.643-0.103-0.864-0.161-1.536-0.174-2.016v0l-0.015-0.57-0.757-28.18zM156.26-21.017l0.16 14.939c0.012 1.087 0.164 1.932 0.458 2.535 0.3 0.61 0.715 1.072 1.245 1.387 0.53 0.314 1.126 0.508 1.786 0.581 0.654 0.073 1.348 0.106 2.081 0.097v0l0.038 3.55c-0.413 0.071-0.825 0.122-1.238 0.153v0c-0.353 0.037-0.779 0.068-1.279 0.094-0.493 0.019-0.98 0.03-1.46 0.036v0c-0.48 0.005-0.97-0.006-1.47-0.035-0.494-0.028-0.917-0.07-1.272-0.126v0c-1.089-0.182-1.94-0.646-2.555-1.393-0.621-0.747-1.087-1.575-1.397-2.485-0.316-0.903-0.519-1.788-0.608-2.653-0.089-0.866-0.137-1.539-0.142-2.019v0l-0.156-14.599-3.55 0.038-0.042-3.94 3.549-0.038-0.082-7.679 5.81-0.063 0.082 7.68 4.32-0.046 0.042 3.939zM169.026 2.142l0.421-35.388 5.76 0.069-0.422 35.387zM177.176-33.154l2.93 0.035c2.98 0.035 5.591 0.537 7.833 1.504 2.249 0.974 4.107 2.252 5.575 3.836 1.474 1.591 2.566 3.391 3.276 5.4 0.709 2.009 1.052 4.069 1.026 6.182v0c-0.035 2.913-0.374 5.399-1.019 7.459-0.651 2.052-1.465 3.769-2.441 5.151-0.977 1.382-2.07 2.466-3.279 3.251-1.209 0.786-2.377 1.372-3.501 1.759-1.125 0.387-2.154 0.631-3.089 0.733-0.928 0.102-1.615 0.151-2.062 0.145v0l-5.67-0.067 0.05-4.23 3.75 0.045c3.906 0.047 6.738-1.167 8.494-3.639 1.756-2.479 2.663-6.089 2.719-10.829v0c0.017-1.467-0.139-2.925-0.468-4.376-0.336-1.444-1.004-2.755-2.003-3.934-0.993-1.179-2.348-2.138-4.066-2.878-1.718-0.741-3.957-1.127-6.717-1.16v0l-1.39-0.017zM218.629-19.453l0.186-4.516c1.725 0.231 3.265 0.762 4.618 1.592 1.36 0.824 2.512 1.862 3.455 3.115 0.942 1.26 1.644 2.684 2.105 4.271 0.468 1.594 0.667 3.237 0.597 4.929v0c-0.032 0.766-0.113 1.533-0.245 2.301v0l-16.456-0.68 0.175-4.226 11.08 0.458c0.034-0.833-0.066-1.637-0.3-2.415-0.241-0.777-0.615-1.507-1.121-2.188-0.499-0.675-1.089-1.253-1.77-1.734-0.688-0.475-1.462-0.778-2.324-0.907zM217.683-1.177v0c0.353 0.015 0.794-0.007 1.324-0.065 0.53-0.058 1.095-0.182 1.696-0.37 0.601-0.182 1.205-0.421 1.812-0.716 0.606-0.295 1.141-0.657 1.606-1.085v0l1.975 3.305c-1.107 1.269-2.38 2.207-3.82 2.814-1.433 0.615-3.236 0.877-5.407 0.788v0c-1.765-0.073-3.399-0.501-4.901-1.284-1.509-0.783-2.781-1.82-3.815-3.11-1.034-1.29-1.837-2.782-2.407-4.473-0.571-1.692-0.816-3.497-0.737-5.415v0c0.075-1.825 0.443-3.541 1.104-5.149 0.654-1.608 1.519-3.006 2.595-4.197 1.076-1.183 2.31-2.133 3.701-2.849 1.391-0.71 2.87-1.079 4.44-1.108v0l-0.191 4.606c-1.188 0.171-2.184 0.61-2.987 1.318-0.796 0.701-1.43 1.516-1.902 2.444-0.472 0.928-0.815 1.881-1.029 2.86-0.214 0.985-0.336 1.831-0.365 2.537v0c-0.051 1.246 0.05 2.411 0.305 3.495 0.262 1.085 0.697 2.034 1.304 2.847 0.607 0.806 1.374 1.461 2.301 1.966 0.92 0.505 2.053 0.785 3.398 0.841zM244.763-32.572l-1.817 28.994c-0.068 1.085 0.025 1.949 0.279 2.592 0.247 0.643 0.617 1.131 1.11 1.462 0.486 0.338 1.056 0.574 1.709 0.709 0.646 0.141 1.355 0.235 2.127 0.283v0l-0.222 3.543c-0.423 0.04-0.859 0.06-1.306 0.059v0c-0.355 0.011-0.772 0.012-1.253 0.001-0.48-0.017-0.959-0.04-1.438-0.07v0c-0.479-0.03-0.957-0.077-1.434-0.14-0.477-0.063-0.907-0.137-1.289-0.221v0c-1.07-0.294-1.885-0.826-2.445-1.596-0.566-0.777-0.98-1.631-1.242-2.562-0.263-0.925-0.407-1.822-0.433-2.693-0.026-0.87-0.023-1.544 0.007-2.023v0l0.035-0.569 1.763-28.135zM254.241 5.535l2.889-35.272 5.841 0.479-2.89 35.271zM276.445-12.593l-0.322 3.927-12.777-1.047 0.322-3.926zM262.045 6.174l0.356-4.355 14.263 1.168-0.357 4.356zM264.934-29.098l14.262 1.169-0.356 4.355-14.263-1.168zM289.066 0.525v0c-0.154 1.432 0.024 2.527 0.532 3.285 0.514 0.766 1.322 1.272 2.422 1.518v0l-0.416 3.867c-0.13 0.02-0.337 0.014-0.622-0.016v0c-1.08-0.116-2.109-0.371-3.086-0.764-0.97-0.393-1.802-0.948-2.496-1.666-0.693-0.725-1.199-1.634-1.517-2.728-0.318-1.094-0.395-2.406-0.231-3.937v0c0.157-1.465 0.605-2.697 1.342-3.698 0.731-1.001 1.62-1.791 2.668-2.368 1.041-0.579 2.203-0.97 3.486-1.175 1.275-0.198 2.549-0.229 3.822-0.092v0l2.097 0.225-0.364 3.391-1.044-0.113c-0.636-0.068-1.313-0.077-2.028-0.026-0.716 0.05-1.395 0.219-2.036 0.505-0.641 0.287-1.195 0.733-1.663 1.34-0.468 0.614-0.757 1.431-0.866 2.452zM303.936 1.88l-0.041 0.378c-0.027 0.252-0.051 0.628-0.071 1.129-0.02 0.494-0.01 1.001 0.028 1.522 0.045 0.521 0.148 0.998 0.309 1.431 0.161 0.44 0.41 0.741 0.748 0.905v0l-1.875 3.037c-0.411-0.044-0.838-0.187-1.282-0.429-0.437-0.241-0.852-0.561-1.245-0.959-0.394-0.391-0.72-0.818-0.978-1.281-0.252-0.463-0.43-0.958-0.535-1.486v0c-0.404 0.761-1.109 1.403-2.118 1.925-1.007 0.515-2.1 0.857-3.278 1.026v0l0.39-3.629c0.786-0.076 1.512-0.314 2.178-0.712 0.673-0.397 1.266-0.89 1.778-1.478v0l1.082-10.073c0.167-1.558 0.221-2.809 0.162-3.754-0.06-0.938-0.259-1.644-0.597-2.116-0.332-0.471-0.77-0.79-1.316-0.956-0.545-0.172-1.202-0.3-1.97-0.382v0c-0.696-0.075-1.365-0.059-2.007 0.046-0.636 0.113-1.231 0.26-1.787 0.442-0.549 0.182-1.038 0.395-1.466 0.637-0.428 0.242-0.747 0.433-0.957 0.571v0l-1.794-3.522c0.356-0.317 0.872-0.624 1.547-0.92 0.676-0.303 1.444-0.552 2.303-0.748 0.859-0.196 1.782-0.328 2.768-0.397 0.994-0.074 2.014-0.055 3.062 0.057v0c0.955 0.103 1.875 0.299 2.763 0.589 0.887 0.29 1.682 0.697 2.383 1.221 0.701 0.525 1.29 1.191 1.766 2 0.476 0.809 0.767 1.782 0.874 2.92v0c0.099 1.137 0.128 2.277 0.085 3.419-0.041 1.135-0.122 2.26-0.242 3.373v0zM322.483-10.622l-1.911 14.817c-0.139 1.078-0.105 1.936 0.101 2.574 0.212 0.646 0.559 1.161 1.041 1.546 0.481 0.385 1.044 0.659 1.689 0.823 0.638 0.163 1.32 0.291 2.047 0.385v0l-0.454 3.521c-0.418 0.013-0.834 0.007-1.248-0.02v0c-0.355-0.012-0.781-0.04-1.279-0.085-0.491-0.05-0.975-0.106-1.451-0.166v0c-0.476-0.061-0.96-0.141-1.451-0.238-0.485-0.096-0.899-0.197-1.242-0.301v0c-1.053-0.331-1.832-0.908-2.338-1.734-0.512-0.826-0.858-1.71-1.039-2.654-0.188-0.938-0.267-1.843-0.235-2.713 0.032-0.87 0.078-1.543 0.14-2.018v0l1.867-14.48-3.521-0.455 0.504-3.907 3.521 0.454 0.983-7.617 5.762 0.743-0.982 7.617 4.284 0.553-0.504 3.907z" opacity="1" transform="matrix(1,0,0,1,0,0)" fill="black" class="wordmark-text-0" data-fill-palette-color="primary" id="text-0"></path></svg></g></svg></g></svg></g></svg></g><g transform="matrix(1,0,0,1,150.33851405732352,0)"><svg viewBox="0 0 94.84297188535294 94.58297972941365" height="94.58297972941365" width="94.84297188535294"><g><svg xmlns="http://www.w3.org/2000/svg" xmlns:xlink="http://www.w3.org/1999/xlink" version="1.1" x="0" y="0" viewBox="10.603 10.71 78.795 78.57900000000001" enable-background="new 0 0 100 100" xml:space="preserve" height="94.58297972941365" width="94.84297188535294" class="icon-icon-0" data-fill-palette-color="accent" id="icon-0"><path d="M79.236 48.382l0.658-0.06c-0.788-8.699-8.871-15.436-18.464-15.436-0.087 0-0.174 0-0.262 0.001-4.615 0.071-8.927 1.653-12.273 4.446-2.482-1.072-5.251-1.667-8.155-1.635-3.933 0.053-7.573 1.193-10.561 3.13L23.373 10.71l-2.916 0.706 7.131 29.46c-1.294 1.228-2.397 2.632-3.239 4.194L13.462 21.673l-2.72 1.266 11.839 25.443H10.603v1.5c0 21.729 17.671 39.407 39.393 39.407 21.727 0 39.402-17.678 39.402-39.407v-1.5H79.236zM61.212 35.888c0.074-0.001 0.148-0.001 0.224-0.001 7.967 0 14.678 5.438 15.44 12.495H58.938c-1.092-3.894-3.678-7.224-7.151-9.494C54.453 37.003 57.726 35.942 61.212 35.888zM40.779 38.7c6.995-0.095 13.013 3.982 15.02 9.683H26.172C28.171 42.781 34.059 38.791 40.779 38.7zM49.995 86.29c-19.565 0-35.573-15.524-36.362-34.907h42.836c0.001 0.004 0.002 0.008 0.002 0.012l0.13-0.012h29.767C85.578 70.765 69.564 86.29 49.995 86.29z" fill="black" data-fill-palette-color="accent"></path></svg></g></svg></g><g></g></svg></g><defs></defs></svg><rect width="395.52" height="169.88711761828296" fill="none" stroke="none" visibility="hidden"></rect></g></svg></g></svg>